<svg xmlns="http://www.w3.org/2000/svg" xmlns:xlink="http://www.w3.org/1999/xlink" version="1.1" x="0px" y="0px" viewBox="0 0 100 100" enable-background="new 0 0 100 100" xml:space="preserve"><path fill="#000000" d="M62.748,19.414c-4.016,0-7.724,1.672-11.021,4.969l-1.734,1.734l-1.38-1.38  c-0.508-0.509-5.159-4.97-11.68-4.97c-4.015,0-7.724,1.672-11.022,4.97l-1.174,1.175c-4.562,4.562-8.327,14.373,0,22.7l1.38,1.38  l-1.749,1.749c-4.562,4.562-8.328,14.374,0.001,22.703l1.173,1.17c0.509,0.509,5.159,4.97,11.679,4.971c0,0,0,0.001,0,0.001  c4.016,0,7.723-1.673,11.021-4.971l1.748-1.748l1.396,1.396c0.509,0.509,5.158,4.97,11.679,4.97c4.016,0,7.725-1.672,11.022-4.971  l1.175-1.174c4.561-4.563,8.326-14.374,0-22.7l-1.396-1.396l1.733-1.733c0.287-0.287,2.843-2.918,4.175-6.916  c1.872-5.615,0.39-11.222-4.174-15.786l-1.175-1.174C73.918,23.875,69.269,19.414,62.748,19.414z M29.672,43.677  c-6.027-6.026-1.045-11.758,0-12.83l1.173-1.174c1.969-1.969,3.96-2.926,6.087-2.926c3.698,0,6.729,2.912,6.744,2.926l1.379,1.38  L31.052,45.058L29.672,43.677z M37.222,73.605c-3.7,0-6.731-2.912-6.746-2.927l-1.172-1.171c-6.029-6.028-1.045-11.76,0-12.833  l11.258-11.258c0.123,0.183,0.262,0.356,0.422,0.518L54.049,59c0.161,0.16,0.336,0.299,0.518,0.422L43.309,70.681  C41.339,72.648,39.349,73.605,37.222,73.605z M70.327,56.323c6.028,6.027,1.045,11.758,0,12.83l-1.173,1.174  c-1.969,1.969-3.96,2.926-6.088,2.926c-3.698,0-6.729-2.911-6.744-2.926l-1.396-1.396l14.005-14.004L70.327,56.323z M70.666,43.324  L59.407,54.582c-0.124-0.183-0.262-0.356-0.423-0.517L45.919,40.999c-0.161-0.16-0.335-0.299-0.518-0.422l11.26-11.259  c1.969-1.969,3.959-2.925,6.086-2.925c3.699,0,6.73,2.911,6.744,2.926l1.174,1.173C76.693,36.521,71.711,42.251,70.666,43.324z"></path></svg>